<?xml version="1.0" standalone="no"?>
<!DOCTYPE svg PUBLIC "-//W3C//DTD SVG 20010904//EN"
 "http://www.w3.org/TR/2001/REC-SVG-20010904/DTD/svg10.dtd">
<svg version="1.0" xmlns="http://www.w3.org/2000/svg"
 width="50.000000pt" height="50.000000pt" viewBox="0 0 50.000000 50.000000"
 preserveAspectRatio="xMidYMid meet">

<g transform="translate(0.000000,50.000000) scale(0.100000,-0.100000)"
fill="#000000" stroke="none">
<path d="M210 460 c0 -6 47 -10 120 -10 l120 0 0 -200 0 -200 -70 0 c-40 0
-70 -4 -70 -10 0 -6 33 -10 80 -10 l80 0 0 220 0 220 -130 0 c-80 0 -130 -4
-130 -10z"/>
<path d="M222 418 c-32 -32 4 -87 48 -73 24 8 34 39 20 65 -12 22 -49 27 -68
8z"/>
<path d="M370 382 c0 -4 5 -13 12 -20 9 -9 4 -12 -25 -12 -20 0 -37 -4 -37
-10 0 -5 16 -10 36 -10 32 0 35 -2 24 -15 -23 -28 0 -30 27 -2 l27 26 -24 26
c-23 25 -40 32 -40 17z"/>
<path d="M90 305 c-36 -59 -6 -90 36 -37 27 33 40 24 25 -19 -6 -18 -11 -40
-11 -49 0 -21 111 -169 127 -170 27 0 22 25 -16 89 -38 63 -41 71 -29 97 6 16
13 30 14 32 1 2 14 -4 27 -13 35 -23 92 -17 92 10 0 13 -8 21 -23 23 -13 2
-44 19 -69 38 -38 29 -53 34 -98 34 -50 0 -55 -2 -75 -35z"/>
<path d="M110 161 c0 -6 -17 -11 -37 -13 -30 -2 -38 -7 -38 -23 0 -17 8 -20
53 -23 58 -3 72 10 52 47 -11 21 -30 29 -30 12z"/>
</g>
</svg>
