<svg width="30" height="30" viewBox="0 0 30 30" fill="none" xmlns="http://www.w3.org/2000/svg">
<rect width="30" height="30" fill="black"/>
<path d="M23.4995 21.5431C23.7847 21.8517 23.9395 22.2586 23.9313 22.6787C23.9231 23.0988 23.7527 23.4995 23.4557 23.7967C23.1586 24.0939 22.7581 24.2646 22.338 24.2731C21.9179 24.2816 21.5108 24.1271 21.2021 23.8421L15 17.64L8.79789 23.8421C8.64923 24.0029 8.46963 24.132 8.26986 24.2217C8.07009 24.3114 7.85426 24.3598 7.63531 24.3641C7.41637 24.3683 7.19882 24.3283 6.99571 24.2465C6.7926 24.1646 6.60812 24.0425 6.45333 23.8876C6.29853 23.7327 6.17662 23.5482 6.09489 23.345C6.01316 23.1418 5.97331 22.9243 5.97772 22.7053C5.98212 22.4864 6.0307 22.2706 6.12054 22.0709C6.21037 21.8712 6.33962 21.6917 6.50052 21.5431L12.7026 15.341L6.50052 9.14206C6.33962 8.99351 6.21037 8.814 6.12054 8.61429C6.0307 8.41458 5.98212 8.19879 5.97772 7.97984C5.97331 7.7609 6.01316 7.54333 6.09489 7.34016C6.17662 7.137 6.29853 6.95243 6.45333 6.79753C6.60812 6.64263 6.7926 6.52059 6.99571 6.43872C7.19882 6.35686 7.41637 6.31685 7.63531 6.32111C7.85426 6.32536 8.07009 6.37379 8.26986 6.46349C8.46963 6.55319 8.64923 6.68231 8.79789 6.84311L15 13.0436L21.2021 6.84153C21.5108 6.55651 21.9179 6.40204 22.338 6.41049C22.7581 6.41895 23.1586 6.58967 23.4557 6.88689C23.7527 7.18411 23.9231 7.58476 23.9313 8.00487C23.9395 8.42498 23.7847 8.83194 23.4995 9.14048L17.2974 15.341L23.4995 21.5431Z" fill="white"/>
</svg>
