<svg width="15" height="15" viewBox="0 0 12 13" fill="none" xmlns="http://www.w3.org/2000/svg">
<path d="M11.6814 10.1482C11.8715 10.3539 11.9747 10.6252 11.9693 10.9053C11.9638 11.1854 11.8502 11.4525 11.6522 11.6506C11.4542 11.8487 11.1872 11.9626 10.9071 11.9682C10.627 11.9738 10.3556 11.8709 10.1498 11.6808L6.01507 7.5461L1.88033 11.6808C1.78123 11.788 1.6615 11.8741 1.52832 11.9339C1.39513 11.9937 1.25125 12.026 1.10528 12.0288C0.959321 12.0317 0.814288 12.005 0.678883 11.9504C0.543478 11.8959 0.42049 11.8145 0.317295 11.7112C0.214099 11.608 0.132822 11.4849 0.0783368 11.3495C0.0238518 11.214 -0.00271834 11.069 0.000219579 10.923C0.0031575 10.7771 0.035543 10.6332 0.095434 10.5001C0.155325 10.3669 0.241488 10.2472 0.348755 10.1482L4.48349 6.01347L0.348755 1.88084C0.241488 1.78181 0.155325 1.66214 0.095434 1.529C0.035543 1.39585 0.0031575 1.25199 0.000219579 1.10603C-0.00271834 0.960068 0.0238518 0.815017 0.0783368 0.679574C0.132822 0.544132 0.214099 0.421088 0.317295 0.317821C0.42049 0.214555 0.543478 0.133193 0.678883 0.0786149C0.814288 0.024037 0.959321 -0.0026328 1.10528 0.000204844C1.25125 0.00304248 1.39513 0.0353291 1.52832 0.0951286C1.6615 0.154928 1.78123 0.241009 1.88033 0.348208L6.01507 4.48189L10.1498 0.347156C10.3556 0.157137 10.627 0.0541562 10.9071 0.0597934C11.1872 0.0654307 11.4542 0.179248 11.6522 0.377395C11.8502 0.575542 11.9638 0.842638 11.9693 1.12271C11.9747 1.40278 11.8715 1.67409 11.6814 1.87979L7.54665 6.01347L11.6814 10.1482Z" fill="black"/>
</svg>
